Coordinates
version=1
nRows=5
nColumns=40
inDegrees=yes

Units are S.I. units (second, meters, Newtons, ...)
Angles are in degrees.

endheader
time	pelvis_tilt	pelvis_list	pelvis_rotation	pelvis_tx	pelvis_ty	pelvis_tz	hip_flexion_r	hip_adduction_r	hip_rotation_r	knee_angle_r	knee_angle_r_beta	ankle_angle_r	subtalar_angle_r	mtp_angle_r	hip_flexion_l	hip_adduction_l	hip_rotation_l	knee_angle_l	knee_angle_l_beta	ankle_angle_l	subtalar_angle_l	mtp_angle_l	lumbar_extension	lumbar_bending	lumbar_rotation	arm_flex_r	arm_add_r	arm_rot_r	elbow_flex_r	pro_sup_r	wrist_flex_r	wrist_dev_r	arm_flex_l	arm_add_l	arm_rot_l	elbow_flex_l	pro_sup_l	wrist_flex_l	wrist_dev_l
     18.91000000	     -2.89118660	     -4.29897461	     -0.44630300	      1.03996642	      0.93310397	      0.41685720	     32.48591388	     -7.00468913	     -6.41694231	     68.42400640	     68.42400640	      0.05050957	    -15.59014801	      1.48158088	     14.89894829	     -4.88546041	     -8.10301426	     22.44837867	     22.44837867	     12.57932249	    -10.59872300	     -1.12311955	    -12.07013993	      5.12019287	      1.28966440	      5.19466394	    -14.69689578	      2.23588404	     82.27372210	     44.42766963	      0.00000000	      0.00000000	     10.71688042	    -13.36175321	      8.20521354	     49.42991181	     45.48531406	      0.00000000	      0.00000000
     18.92157143	     -2.92187206	     -4.49693033	     -0.74967184	      1.03902554	      0.93369236	      0.41615864	     33.46098963	     -6.71725875	     -6.46952125	     66.29325203	     66.29325203	      0.16164997	    -15.07152968	      1.41459372	     14.07474833	     -5.03882105	     -8.31415089	     21.95623339	     21.95623339	     12.91202410	    -10.47576608	     -1.20539472	    -12.17169775	      5.42841803	      1.66053402	      2.89510584	    -15.27237053	      2.31628955	     79.63513432	     44.50906994	      0.00000000	      0.00000000	     12.50253748	    -13.55766276	      7.99109029	     50.83267627	     45.54470813	      0.00000000	      0.00000000
     18.93314286	     -2.89526097	     -4.58699134	     -1.17234659	      1.03810981	      0.93434500	      0.41566476	     34.19894564	     -6.41303952	     -6.36700767	     63.83598836	     63.83598836	     -0.16091583	    -14.70353323	      0.37918348	     13.12959309	     -5.11151535	     -8.79502962	     21.37525312	     21.37525312	     13.06900829	    -10.26057113	     -1.62109674	    -12.25851008	      5.46045864	      1.84982570	      2.45479384	    -14.69650735	      0.90848994	     72.23093222	     44.82780412	      0.00000000	      0.00000000	     13.71540891	    -14.32458506	      8.72120047	     53.91686792	     45.58185549	      0.00000000	      0.00000000
     18.94471429	     -2.88804695	     -4.69927083	     -1.51031609	      1.03727533	      0.93484374	      0.41511542	     34.76454707	     -6.10976348	     -6.38065866	     61.11803993	     61.11803993	     -0.36532110	    -14.20869849	     -0.20735275	     12.22268393	     -5.16056419	     -9.07910027	     20.79034027	     20.79034027	     13.24920169	    -10.17773142	     -1.91072306	    -12.37448535	      5.57747062	      1.89868884	      1.62419190	    -14.66129199	      0.62389305	     66.64563932	     45.04315554	      0.00000000	      0.00000000	     14.91207606	    -15.01665995	      8.90239841	     56.70695584	     45.67656095	      0.00000000	      0.00000000
     18.95628571	     -2.90160838	     -4.79924222	     -1.84233211	      1.03649543	      0.93523817	      0.41463733	     35.18530424	     -5.80453169	     -6.44723951	     58.11674587	     58.11674587	     -0.49385376	    -13.55439396	     -0.38662043	     11.33457612	     -5.20029853	     -9.41241082	     20.19093985	     20.19093985	     13.42706812	    -10.01236831	     -2.21370247	    -12.45796842	      5.68903114	      1.93454271	      0.99877410	    -14.60207064	      0.29711147	     60.96182510	     45.25962475	      0.00000000	      0.00000000	     16.08938150	    -15.60736601	      8.75989826	     59.28015892	     45.79792469	      0.00000000	      0.00000000
